<svg width="68" height="56" viewBox="0 0 68 56" fill="none" xmlns="http://www.w3.org/2000/svg">
<g filter="url(#filter0_d)">
<path d="M26.875 36H23.125C22.4688 36 22 36.5625 22 37.125V40.875C22 41.5312 22.4688 42 23.125 42H26.875C27.4375 42 28 41.5312 28 40.875V37.125C28 36.5625 27.4375 36 26.875 36ZM26.875 18H23.125C22.4688 18 22 18.5625 22 19.125V22.875C22 23.5312 22.4688 24 23.125 24H26.875C27.4375 24 28 23.5312 28 22.875V19.125C28 18.5625 27.4375 18 26.875 18ZM17.875 18H14.125C13.4688 18 13 18.5625 13 19.125V22.875C13 23.5312 13.4688 24 14.125 24H17.875C18.4375 24 19 23.5312 19 22.875V19.125C19 18.5625 18.4375 18 17.875 18ZM17.875 36H14.125C13.4688 36 13 36.5625 13 37.125V40.875C13 41.5312 13.4688 42 14.125 42H17.875C18.4375 42 19 41.5312 19 40.875V37.125C19 36.5625 18.4375 36 17.875 36ZM17.875 27H14.125C13.4688 27 13 27.5625 13 28.125V31.875C13 32.5312 13.4688 33 14.125 33H17.875C18.4375 33 19 32.5312 19 31.875V28.125C19 27.5625 18.4375 27 17.875 27ZM26.875 27H23.125C22.4688 27 22 27.5625 22 28.125V31.875C22 32.5312 22.4688 33 23.125 33H26.875C27.4375 33 28 32.5312 28 31.875V28.125C28 27.5625 27.4375 27 26.875 27ZM53.875 36H50.125C49.4688 36 49 36.5625 49 37.125V40.875C49 41.5312 49.4688 42 50.125 42H53.875C54.4375 42 55 41.5312 55 40.875V37.125C55 36.5625 54.4375 36 53.875 36ZM53.875 27H50.125C49.4688 27 49 27.5625 49 28.125V31.875C49 32.5312 49.4688 33 50.125 33H53.875C54.4375 33 55 32.5312 55 31.875V28.125C55 27.5625 54.4375 27 53.875 27ZM61.75 18H52V2.25C52 1.03125 50.9688 0 49.75 0H30.25C28.9375 0 28 1.03125 28 2.25V9H25V1.5C25 0.75 24.25 0 23.5 0H22C21.1562 0 20.5 0.75 20.5 1.5V9H14.5V1.5C14.5 0.75 13.75 0 13 0H11.5C10.6562 0 10 0.75 10 1.5V9H6.25C4.9375 9 4 10.0312 4 11.25V46.5C4 47.3438 4.65625 48 5.5 48H7C7.75 48 8.5 47.3438 8.5 46.5V13.5H32.5V4.5H47.5V22.5H59.5V46.5C59.5 47.3438 60.1562 48 61 48H62.5C63.25 48 64 47.3438 64 46.5V20.25C64 19.0312 62.9688 18 61.75 18ZM41.875 9H38.125C37.4688 9 37 9.5625 37 10.125V13.875C37 14.5312 37.4688 15 38.125 15H41.875C42.4375 15 43 14.5312 43 13.875V10.125C43 9.5625 42.4375 9 41.875 9ZM41.875 27H38.125C37.4688 27 37 27.5625 37 28.125V31.875C37 32.5312 37.4688 33 38.125 33H41.875C42.4375 33 43 32.5312 43 31.875V28.125C43 27.5625 42.4375 27 41.875 27ZM41.875 18H38.125C37.4688 18 37 18.5625 37 19.125V22.875C37 23.5312 37.4688 24 38.125 24H41.875C42.4375 24 43 23.5312 43 22.875V19.125C43 18.5625 42.4375 18 41.875 18Z" fill="#F7654A"/>
</g>
<defs>
<filter id="filter0_d" x="0" y="0" width="68" height="56" filterUnits="userSpaceOnUse" color-interpolation-filters="sRGB">
<feFlood flood-opacity="0" result="BackgroundImageFix"/>
<feColorMatrix in="SourceAlpha" type="matrix" values="0 0 0 0 0 0 0 0 0 0 0 0 0 0 0 0 0 0 127 0"/>
<feOffset dy="4"/>
<feGaussianBlur stdDeviation="2"/>
<feColorMatrix type="matrix" values="0 0 0 0 0 0 0 0 0 0 0 0 0 0 0 0 0 0 0.25 0"/>
<feBlend mode="normal" in2="BackgroundImageFix" result="effect1_dropShadow"/>
<feBlend mode="normal" in="SourceGraphic" in2="effect1_dropShadow" result="shape"/>
</filter>
</defs>
</svg>
