<svg width="55" height="56" viewBox="0 0 55 56" fill="none" xmlns="http://www.w3.org/2000/svg">
<g filter="url(#filter0_d)">
<path d="M27.5 0.75C14.6562 0.75 4.25 11.1562 4.25 24C4.25 36.8438 14.6562 47.25 27.5 47.25C40.3438 47.25 50.75 36.8438 50.75 24C50.75 11.1562 40.3438 0.75 27.5 0.75ZM27.5 42.75C17.0938 42.75 8.75 34.4062 8.75 24C8.75 13.6875 17.0938 5.25 27.5 5.25C37.8125 5.25 46.25 13.6875 46.25 24C46.25 34.4062 37.8125 42.75 27.5 42.75ZM33.2188 33C33.7812 33.375 34.4375 33.2812 34.8125 32.7188L36.5938 30.375C36.9688 29.8125 36.875 29.1562 36.3125 28.7812L30.125 24.1875V10.875C30.125 10.3125 29.5625 9.75 29 9.75H26C25.3438 9.75 24.875 10.3125 24.875 10.875V26.3438C24.875 26.625 24.9688 27 25.25 27.1875L33.2188 33Z" fill="#F7654A"/>
</g>
<defs>
<filter id="filter0_d" x="0.25" y="0.75" width="54.5" height="54.5" filterUnits="userSpaceOnUse" color-interpolation-filters="sRGB">
<feFlood flood-opacity="0" result="BackgroundImageFix"/>
<feColorMatrix in="SourceAlpha" type="matrix" values="0 0 0 0 0 0 0 0 0 0 0 0 0 0 0 0 0 0 127 0"/>
<feOffset dy="4"/>
<feGaussianBlur stdDeviation="2"/>
<feColorMatrix type="matrix" values="0 0 0 0 0 0 0 0 0 0 0 0 0 0 0 0 0 0 0.25 0"/>
<feBlend mode="normal" in2="BackgroundImageFix" result="effect1_dropShadow"/>
<feBlend mode="normal" in="SourceGraphic" in2="effect1_dropShadow" result="shape"/>
</filter>
</defs>
</svg>
