<svg width="57" height="44" viewBox="0 0 57 44" fill="none" xmlns="http://www.w3.org/2000/svg">
<g filter="url(#filter0_d)">
<path d="M48 0H9C6.46875 0 4.5 2.0625 4.5 4.5V31.5C4.5 34.0312 6.46875 36 9 36H48C50.4375 36 52.5 34.0312 52.5 31.5V4.5C52.5 2.0625 50.4375 0 48 0ZM48 4.5V8.34375C45.8438 10.125 42.4688 12.75 35.3438 18.375C33.75 19.5938 30.6562 22.5938 28.5 22.5C26.25 22.5938 23.1562 19.5938 21.5625 18.375C14.4375 12.75 11.0625 10.125 9 8.34375V4.5H48ZM9 31.5V14.1562C11.0625 15.8438 14.1562 18.2812 18.75 21.9375C20.8125 23.5312 24.4688 27.0938 28.5 27C32.4375 27.0938 36 23.5312 38.1562 21.9375C42.75 18.2812 45.8438 15.8438 48 14.1562V31.5H9Z" fill="#F7654A"/>
</g>
<defs>
<filter id="filter0_d" x="0.5" y="0" width="56" height="44" filterUnits="userSpaceOnUse" color-interpolation-filters="sRGB">
<feFlood flood-opacity="0" result="BackgroundImageFix"/>
<feColorMatrix in="SourceAlpha" type="matrix" values="0 0 0 0 0 0 0 0 0 0 0 0 0 0 0 0 0 0 127 0"/>
<feOffset dy="4"/>
<feGaussianBlur stdDeviation="2"/>
<feColorMatrix type="matrix" values="0 0 0 0 0 0 0 0 0 0 0 0 0 0 0 0 0 0 0.25 0"/>
<feBlend mode="normal" in2="BackgroundImageFix" result="effect1_dropShadow"/>
<feBlend mode="normal" in="SourceGraphic" in2="effect1_dropShadow" result="shape"/>
</filter>
</defs>
</svg>
