<svg width="57" height="56" viewBox="0 0 57 56" fill="none" xmlns="http://www.w3.org/2000/svg">
<g filter="url(#filter0_d)">
<path d="M49.125 2.15625L40.3125 0.1875C38.25 -0.28125 36.1875 0.75 35.4375 2.625L31.3125 12.1875C30.5625 13.875 31.0312 15.9375 32.5312 17.1562L36.2812 20.25C33.6562 25.125 29.5312 29.1562 24.6562 31.875L21.5625 28.125C20.3438 26.625 18.2812 26.1562 16.5938 26.9062L7.03125 30.9375C5.15625 31.7812 4.125 33.8438 4.59375 35.9062L6.5625 44.7188C7.03125 46.6875 8.8125 48 10.7812 48C33.75 48 52.5 29.4375 52.5 6.375C52.5 4.40625 51.0938 2.625 49.125 2.15625ZM10.9688 43.5L9 35.0625L18.1875 31.125L23.4375 37.5C32.7188 33.0938 37.5 28.3125 41.9062 19.0312L35.5312 13.7812L39.4688 4.59375L48 6.5625C47.9062 26.9062 31.3125 43.4062 10.9688 43.5Z" fill="#F7654A"/>
</g>
<defs>
<filter id="filter0_d" x="0.481247" y="0.0751953" width="56.0188" height="55.925" filterUnits="userSpaceOnUse" color-interpolation-filters="sRGB">
<feFlood flood-opacity="0" result="BackgroundImageFix"/>
<feColorMatrix in="SourceAlpha" type="matrix" values="0 0 0 0 0 0 0 0 0 0 0 0 0 0 0 0 0 0 127 0"/>
<feOffset dy="4"/>
<feGaussianBlur stdDeviation="2"/>
<feColorMatrix type="matrix" values="0 0 0 0 0 0 0 0 0 0 0 0 0 0 0 0 0 0 0.25 0"/>
<feBlend mode="normal" in2="BackgroundImageFix" result="effect1_dropShadow"/>
<feBlend mode="normal" in="SourceGraphic" in2="effect1_dropShadow" result="shape"/>
</filter>
</defs>
</svg>
